<?xml version="1.0" encoding="UTF-8"?>
<svg width="45" height="45" preserveAspectRatio="xMidYMid" version="1.0" viewBox="0 0 45 45" xmlns="http://www.w3.org/2000/svg">
 <metadata>Created by potrace 1.15, written by Peter Selinger 2001-2017</metadata>
 <path d="m22 9c-2.21 0-4 1.79-4 4 0 0.89 0.29 1.71 0.78 2.38-1.95 1.12-3.28 3.21-3.28 5.62 0 2.03 0.94 3.84 2.41 5.03-3 1.06-7.41 5.55-7.41 13.47h23c0-7.92-4.41-12.41-7.41-13.47 1.47-1.19 2.41-3 2.41-5.03 0-2.41-1.33-4.5-3.28-5.62 0.49-0.67 0.78-1.49 0.78-2.38 0-2.21-1.79-4-4-4z" stroke="#000" stroke-linecap="round" stroke-width="1.5"/>
</svg>
